<?xml version="1.0" encoding="utf-8"?>
<svg xmlns="http://www.w3.org/2000/svg"
	xmlns:xlink="http://www.w3.org/1999/xlink"
	width="6px" height="11px" viewBox="0 0 6 11">
<path fillRule="evenodd" d="M 6 5.5C 6 5.33 5.94 5.17 5.82 5.04 5.82 5.04 0.98 0.1 0.98 0.1 0.86-0.02 0.66-0.02 0.54 0.1 0.54 0.1 0.09 0.56 0.09 0.56 0.03 0.62-0 0.7-0 0.78-0 0.87 0.03 0.95 0.09 1.01 0.09 1.01 4.26 5.27 4.26 5.27 4.32 5.33 4.35 5.42 4.35 5.5 4.35 5.58 4.32 5.66 4.26 5.73 4.26 5.73 0.09 9.99 0.09 9.99 0.03 10.05-0 10.13-0 10.21-0 10.3 0.03 10.38 0.09 10.44 0.09 10.44 0.54 10.89 0.54 10.89 0.66 11.02 0.86 11.02 0.98 10.89 0.98 10.89 5.82 5.95 5.82 5.95 5.94 5.83 6 5.66 6 5.5" fill="rgb(53,141,215)"/></svg>