<?xml version="1.0" encoding="utf-8"?>
<svg xmlns="http://www.w3.org/2000/svg"
	xmlns:xlink="http://www.w3.org/1999/xlink"
	width="16px" height="12px" viewBox="0 0 16 12">
<path fillRule="evenodd" d="M 15.8 1.44C 15.8 1.44 15.14 0.8 15.14 0.8 14.96 0.62 14.66 0.62 14.48 0.8 14.48 0.8 5.93 9.06 5.93 9.06 5.74 9.24 5.45 9.24 5.26 9.06 5.26 9.06 1.49 5.41 1.49 5.41 1.3 5.24 1.01 5.24 0.82 5.41 0.82 5.41 0.16 6.05 0.16 6.05-0.02 6.23-0.02 6.52 0.16 6.69 0.16 6.69 4.92 11.29 4.92 11.29 5.28 11.64 5.88 11.64 6.24 11.29 6.24 11.29 15.8 2.08 15.8 2.08 15.99 1.9 15.99 1.62 15.8 1.44" fill="rgb(133,211,93)"/></svg>