<?xml version="1.0" encoding="utf-8"?>
<svg xmlns="http://www.w3.org/2000/svg"
	xmlns:xlink="http://www.w3.org/1999/xlink"
	width="121px" height="22px" viewBox="0 0 121 22">
<path fillRule="evenodd" d="M 2.75 21.55C 2.75 21.55 2.75 12.92 2.75 12.92 2.75 10.78 4.08 9.29 6.06 9.29 8.19 9.29 9.08 10.72 9.08 12.56 9.08 12.56 9.08 21.55 9.08 21.55 9.08 21.55 11.86 21.55 11.86 21.55 11.86 21.55 11.86 12.89 11.86 12.89 11.86 10.84 13.19 9.29 15.14 9.29 17.24 9.29 18.15 10.69 18.15 12.56 18.15 12.56 18.15 21.55 18.15 21.55 18.15 21.55 20.9 21.55 20.9 21.55 20.9 21.55 20.9 12.26 20.9 12.26 20.9 8.51 18.48 6.82 15.99 6.82 14.19 6.82 12.36 7.47 11.23 9.53 10.47 7.68 8.75 6.82 6.98 6.82 5.32 6.82 3.55 7.56 2.66 9.14 2.66 9.14 2.66 7.23 2.66 7.23 2.66 7.23 0 7.23 0 7.23 0 7.23 0 21.55 0 21.55 0 21.55 2.75 21.55 2.75 21.55ZM 32.56 19.5C 30.2 19.5 28.13 17.71 28.13 14.38 28.13 11.07 30.2 9.29 32.56 9.29 34.93 9.29 37 11.07 37 14.38 37 17.71 34.93 19.5 32.56 19.5 32.56 19.5 32.56 19.5 32.56 19.5ZM 32.56 6.79C 28.31 6.79 25.29 10.03 25.29 14.38 25.29 18.76 28.31 22 32.56 22 36.82 22 39.84 18.76 39.84 14.38 39.84 10.03 36.82 6.79 32.56 6.79 32.56 6.79 32.56 6.79 32.56 6.79ZM 46.18 14.35C 46.18 11.4 47.83 9.32 50.37 9.32 52.92 9.32 54.45 11.34 54.45 14.29 54.45 17.24 52.89 19.47 50.34 19.47 47.68 19.47 46.18 17.3 46.18 14.35 46.18 14.35 46.18 14.35 46.18 14.35ZM 54.48 19.62C 54.48 20.48 54.57 21.23 54.63 21.55 54.63 21.55 57.32 21.55 57.32 21.55 57.29 21.31 57.17 20.27 57.17 18.9 57.17 18.9 57.17-0 57.17-0 57.17-0 54.42-0 54.42-0 54.42-0 54.42 9.26 54.42 9.26 53.95 8.1 52.59 6.85 50.08 6.85 46.06 6.85 43.34 10.3 43.34 14.35 43.34 18.61 45.91 21.94 50.08 21.94 52.3 21.94 53.8 20.75 54.48 19.38 54.48 19.38 54.48 19.62 54.48 19.62ZM 72.26 19.83C 72.26 20.42 72.32 21.23 72.38 21.55 72.38 21.55 75.04 21.55 75.04 21.55 74.98 21.05 74.9 20.04 74.9 18.9 74.9 18.9 74.9 7.23 74.9 7.23 74.9 7.23 72.12 7.23 72.12 7.23 72.12 7.23 72.12 15.87 72.12 15.87 72.12 18.04 70.99 19.53 68.75 19.53 66.41 19.53 65.52 17.8 65.52 15.84 65.52 15.84 65.52 7.23 65.52 7.23 65.52 7.23 62.74 7.23 62.74 7.23 62.74 7.23 62.74 16.25 62.74 16.25 62.74 19.5 64.75 22 68.07 22 69.72 22 71.5 21.31 72.26 19.83 72.26 19.83 72.26 19.83 72.26 19.83ZM 83.54 21.55C 83.54 21.55 83.54-0 83.54-0 83.54-0 80.76-0 80.76-0 80.76-0 80.76 21.55 80.76 21.55 80.76 21.55 83.54 21.55 83.54 21.55ZM 91.21 12.92C 91.33 11.07 92.75 9.26 95.08 9.26 97.6 9.26 98.93 10.87 98.99 12.92 98.99 12.92 91.21 12.92 91.21 12.92ZM 99.4 16.64C 98.87 18.25 97.72 19.53 95.41 19.53 93.01 19.53 91.18 17.74 91.12 15.18 91.12 15.18 101.82 15.18 101.82 15.18 101.85 15 101.88 14.65 101.88 14.29 101.88 9.82 99.43 6.79 95.05 6.79 91.48 6.79 88.25 9.85 88.25 14.35 88.25 19.2 91.6 22 95.41 22 98.72 22 101 20 101.79 17.47 101.79 17.47 99.4 16.64 99.4 16.64ZM 116.84 3.12C 116.83 2.98 116.81 2.84 116.81 2.72 116.81 1.91 117.25 1.27 118.17 1.27 119.05 1.27 119.49 1.85 119.49 2.49 119.49 3.06 119.19 3.53 118.49 3.96 118.49 3.96 117.19 4.77 117.19 4.77 115.83 5.62 115.36 6.67 115.33 8.01 115.33 8.01 121 8.01 121 8.01 121 8.01 121 6.73 121 6.73 121 6.73 117.12 6.73 117.12 6.73 117.23 6.34 117.54 6.07 117.92 5.84 117.92 5.84 119.44 4.89 119.44 4.89 120.38 4.31 120.95 3.48 120.95 2.46 120.95 1.12 119.92-0 118.2-0 116.42-0 115.41 1.22 115.41 2.57 115.41 2.73 115.43 2.91 115.44 3.02 115.44 3.02 116.84 3.12 116.84 3.12ZM 109.44 4.1C 109.44 3.1 109.61 2.34 109.99 1.86 110.26 1.51 110.63 1.28 111.2 1.28 111.77 1.28 112.13 1.51 112.41 1.86 112.78 2.34 112.95 3.1 112.95 4.1 112.95 5.09 112.78 5.85 112.41 6.33 112.13 6.68 111.77 6.91 111.2 6.91 110.63 6.91 110.26 6.68 109.99 6.33 109.62 5.85 109.44 5.09 109.44 4.1 109.44 4.1 109.44 4.1 109.44 4.1ZM 108 4.1C 108 5.13 108.17 6.11 108.7 6.91 109.21 7.67 110.03 8.19 111.2 8.19 112.37 8.19 113.18 7.67 113.69 6.91 114.22 6.11 114.39 5.13 114.39 4.1 114.39 3.06 114.22 2.08 113.69 1.28 113.18 0.52 112.37-0 111.2-0 110.03-0 109.21 0.52 108.7 1.28 108.17 2.08 108 3.06 108 4.1 108 4.1 108 4.1 108 4.1Z" fill="rgb(67,71,77)"/></svg>