<?xml version="1.0" encoding="utf-8"?>
<!-- Generator: Adobe Illustrator 21.0.2, SVG Export Plug-In . SVG Version: 6.00 Build 0)  -->
<svg version="1.1" id="Layer_1" xmlns="http://www.w3.org/2000/svg" xmlns:xlink="http://www.w3.org/1999/xlink" x="0px" y="0px"
	 width="150px" height="25px" viewBox="0 0 150 25" style="enable-background:new 0 0 150 25;" xml:space="preserve">
<style type="text/css">
	.st0{fill:#010101;}
	.st1{fill:#AABDC0;}
	.st2{fill:#E8ECED;}
</style>
<g>
	<path class="st0" d="M34.1,23.6v-18c0-0.2,0.1-0.3,0.2-0.5c0.1-0.1,0.3-0.2,0.5-0.2s0.4,0.1,0.5,0.2s0.2,0.3,0.2,0.5v2
		c0.6-0.8,1.4-1.5,2.3-1.9c0.9-0.5,1.9-0.7,3-0.7c1.9,0,3.4,0.7,4.7,2s1.9,2.9,1.9,4.8s-0.6,3.5-1.9,4.8c-1.3,1.3-2.9,2-4.7,2
		c-1.1,0-2-0.2-3-0.7c-0.9-0.5-1.7-1.1-2.3-1.9v7.8c0,0.2-0.1,0.3-0.2,0.5c-0.1,0.1-0.3,0.2-0.5,0.2s-0.5-0.1-0.7-0.2
		C34.1,24,34.1,23.8,34.1,23.6z M35.5,11.5v0.2c0,1.5,0.5,2.8,1.5,3.8c1,1.1,2.3,1.6,3.7,1.6c1.5,0,2.7-0.6,3.7-1.6
		c1-1.1,1.5-2.3,1.5-3.8s-0.5-2.8-1.5-3.8s-2.3-1.6-3.7-1.6S38.1,6.8,37,7.8C36.1,8.8,35.5,10,35.5,11.5z"/>
	<path class="st0" d="M58.2,16.5c-1.3-1.3-1.9-2.9-1.9-4.8s0.6-3.5,1.9-4.8c1.3-1.3,2.8-2,4.6-2s3.3,0.7,4.6,2s1.9,2.9,1.9,4.8
		s-0.6,3.5-1.9,4.8s-2.8,2-4.6,2S59.4,17.9,58.2,16.5z M62.8,6.2c-1.4,0-2.6,0.5-3.6,1.6s-1.5,2.4-1.5,3.9s0.5,2.8,1.5,3.9
		s2.2,1.6,3.6,1.6s2.6-0.5,3.6-1.6s1.5-2.4,1.5-3.9s-0.5-2.8-1.5-3.9S64.2,6.2,62.8,6.2z"/>
	<path class="st0" d="M80,18c-0.1,0.4-0.3,0.6-0.6,0.6h-0.2c-0.2-0.1-0.4-0.2-0.4-0.4c0,0,0,0,0-0.1V18V5.6c0-0.2,0.1-0.3,0.2-0.5
		s0.3-0.2,0.5-0.2S79.8,5,80,5.1c-0.1,0.2,0,0.3,0,0.5v1.3c1.1-1.3,2.5-2,4.1-2s3,0.5,4.1,1.6s1.6,2.4,1.6,3.9v7.4
		c0,0.2-0.1,0.3-0.2,0.5c-0.1,0.1-0.3,0.2-0.5,0.2s-0.3-0.1-0.5-0.2c-0.1-0.1-0.2-0.3-0.2-0.5v-7.4c0-1.2-0.4-2.1-1.2-3
		c-0.8-0.8-1.8-1.2-3-1.2s-2.2,0.4-3,1.2s-1.3,1.8-1.3,3L80,18L80,18z"/>
	<path class="st0" d="M100.2,1.8V1.1c0-0.2,0.1-0.3,0.2-0.5c0.1-0.1,0.3-0.2,0.5-0.2s0.4,0.1,0.5,0.2s0.2,0.3,0.2,0.5v0.6
		c0,0.2-0.1,0.4-0.2,0.5s-0.3,0.2-0.5,0.2s-0.3-0.1-0.5-0.2S100.2,2,100.2,1.8z M100.2,17.9V5.6c0-0.2,0.1-0.3,0.2-0.5
		c0.1-0.1,0.3-0.2,0.5-0.2s0.4,0.1,0.5,0.2s0.2,0.3,0.2,0.5v12.3c0,0.2-0.1,0.3-0.2,0.5c-0.1,0.1-0.3,0.2-0.5,0.2s-0.3-0.1-0.5-0.2
		C100.2,18.2,100.2,18.1,100.2,17.9z"/>
	<path class="st0" d="M124.6,11.3v0.1c0,0.2-0.1,0.3-0.2,0.4c-0.1,0.1-0.3,0.2-0.5,0.2h-11.3c0.1,1.5,0.6,2.7,1.7,3.7
		c1,1,2.3,1.5,3.7,1.5c0.9,0,1.8-0.2,2.6-0.7c0.8-0.4,1.4-1,1.9-1.8c0.2-0.4,0.5-0.4,0.9-0.2c0.4,0.3,0.5,0.6,0.2,0.9
		c-0.6,0.9-1.4,1.7-2.4,2.3c-1,0.6-2,0.8-3.2,0.8c-1.9,0-3.4-0.7-4.7-2c-1.3-1.3-2-2.9-2-4.8s0.7-3.5,2-4.8s2.9-2,4.7-2
		c1.8,0,3.3,0.6,4.6,1.8C123.8,8,124.5,9.5,124.6,11.3z M121.4,7.5c-1-0.8-2.1-1.3-3.4-1.3s-2.4,0.4-3.4,1.2s-1.6,1.9-1.9,3.2h10.4
		C122.9,9.4,122.3,8.3,121.4,7.5z"/>
	<path class="st0" d="M132.8,16.6c-0.3-0.3-0.3-0.6-0.1-0.9c0.1-0.1,0.3-0.2,0.4-0.3c0.2,0,0.4,0,0.5,0.2c1.5,1.1,2.8,1.6,4,1.6
		s2.1-0.3,2.8-0.8s1-1,1-1.6s-0.3-1.2-0.9-1.7c-0.6-0.5-1.6-0.8-3-1.1h-0.1c-1.5-0.3-2.5-0.6-3.1-1.1c-1-0.6-1.5-1.4-1.5-2.5
		s0.5-1.9,1.5-2.7c0.9-0.6,2-0.9,3.4-0.9c0.5,0,1.1,0.1,1.6,0.3c0.6,0.2,1,0.3,1.3,0.5s0.7,0.4,1.2,0.7c0.1,0.1,0.2,0.3,0.3,0.4
		c0,0.2,0,0.4-0.1,0.5s-0.2,0.2-0.4,0.3c-0.2,0-0.4,0-0.5-0.1c-0.5-0.3-0.8-0.5-1.1-0.7c-0.2-0.1-0.6-0.3-1-0.4
		c-0.4-0.2-0.9-0.2-1.3-0.2c-1.1,0-1.9,0.2-2.6,0.7c-0.6,0.5-0.9,1-0.9,1.5s0.3,1,0.8,1.4c0.7,0.4,1.6,0.8,2.8,0.9h0.1
		c1.2,0.2,2.3,0.6,3.3,1.1c1,0.7,1.5,1.6,1.5,2.7s-0.5,2.1-1.5,2.8c-1,0.8-2.2,1.1-3.5,1.1C136.1,18.5,134.4,17.9,132.8,16.6z"/>
</g>
<g>
	<path id="SVGCleanerId_0" class="st1" d="M19.5,21.5c-0.2,0.2-0.3,0.2-0.5,0c-0.2-0.2-0.2-0.3,0-0.5c0.2-0.2,0.3-0.2,0.5,0
		C19.6,21.2,19.6,21.5,19.5,21.5"/>
	<path id="SVGCleanerId_1" class="st1" d="M21.3,20.6c-0.2,0.2-0.3,0.2-0.5,0c-0.2-0.2-0.2-0.3,0-0.5c0.2-0.2,0.3-0.2,0.5,0
		C21.5,20.3,21.5,20.5,21.3,20.6"/>
	<path id="SVGCleanerId_2" class="st1" d="M22.5,19.4c-0.2,0.2-0.3,0.2-0.5,0c-0.2-0.2-0.2-0.3,0-0.5c0.2-0.2,0.3-0.2,0.5,0
		C22.7,19.1,22.7,19.2,22.5,19.4"/>
	<path class="st2" d="M25.4,6.5l-0.9-1.6l-3.4,2L21.5,8c0.5,1,1.1,4.3,1.1,5.9c0,4-2.1,6.5-5.6,6.5l0,0l0,0l0,0l0,0
		c-3.4,0-5.6-2.5-5.6-6.5c0-1.6,0.6-4.9,1.1-5.9l0.5-1.1l-3.5-2L8.7,6.5l1.4,0.8C9.7,8.9,9,12,9,13.8c0,5.4,3.3,9,8.1,9
		s8.1-3.6,8.1-9c0-1.9-0.6-5-1.1-6.5L25.4,6.5z"/>
	<g>
		<path id="SVGCleanerId_0_1_" class="st1" d="M19.5,21.5c-0.2,0.2-0.3,0.2-0.5,0c-0.2-0.2-0.2-0.3,0-0.5c0.2-0.2,0.3-0.2,0.5,0
			C19.6,21.2,19.6,21.5,19.5,21.5"/>
	</g>
	<g>
		<path id="SVGCleanerId_1_1_" class="st1" d="M21.3,20.6c-0.2,0.2-0.3,0.2-0.5,0c-0.2-0.2-0.2-0.3,0-0.5c0.2-0.2,0.3-0.2,0.5,0
			C21.5,20.3,21.5,20.5,21.3,20.6"/>
	</g>
	<g>
		<path id="SVGCleanerId_2_1_" class="st1" d="M22.5,19.4c-0.2,0.2-0.3,0.2-0.5,0c-0.2-0.2-0.2-0.3,0-0.5c0.2-0.2,0.3-0.2,0.5,0
			C22.7,19.1,22.7,19.2,22.5,19.4"/>
	</g>
	<path id="SVGCleanerId_3" class="st1" d="M22.9,7.6c-0.2,0.2-0.3,0.2-0.5,0c-0.2-0.2-0.2-0.3,0-0.5s0.3-0.2,0.5,0
		C23,7.3,23,7.5,22.9,7.6"/>
	<g>
		<path id="SVGCleanerId_3_1_" class="st1" d="M22.9,7.6c-0.2,0.2-0.3,0.2-0.5,0c-0.2-0.2-0.2-0.3,0-0.5s0.3-0.2,0.5,0
			C23,7.3,23,7.5,22.9,7.6"/>
	</g>
	<path id="SVGCleanerId_4" class="st1" d="M11.7,7.6c-0.2,0.2-0.3,0.2-0.5,0c-0.1-0.1-0.1-0.3,0-0.5c0.2-0.2,0.3-0.2,0.5,0
		S11.9,7.5,11.7,7.6"/>
	<g>
		<path id="SVGCleanerId_4_1_" class="st1" d="M11.7,7.6c-0.2,0.2-0.3,0.2-0.5,0c-0.1-0.1-0.1-0.3,0-0.5c0.2-0.2,0.3-0.2,0.5,0
			S11.9,7.5,11.7,7.6"/>
	</g>
	<g>
		<path class="st1" d="M14.7,21.5c0.2,0.2,0.3,0.2,0.5,0c0.2-0.2,0.2-0.3,0-0.5c-0.2-0.2-0.3-0.2-0.5,0
			C14.5,21.2,14.5,21.5,14.7,21.5"/>
		<path class="st1" d="M12.9,20.6c0.2,0.2,0.3,0.2,0.5,0c0.2-0.2,0.2-0.3,0-0.5c-0.2-0.2-0.3-0.2-0.5,0
			C12.7,20.3,12.7,20.5,12.9,20.6"/>
		<path class="st1" d="M11.6,19.4c0.2,0.2,0.3,0.2,0.5,0c0.2-0.2,0.2-0.3,0-0.5s-0.3-0.2-0.5,0C11.5,19.1,11.5,19.2,11.6,19.4"/>
		<path class="st1" d="M17.3,21.8c-0.2,0.2-0.3,0.2-0.5,0c-0.2-0.2-0.2-0.3,0-0.5c0.2-0.2,0.3-0.2,0.5,0
			C17.4,21.5,17.4,21.8,17.3,21.8"/>
	</g>
</g>
</svg>
