<?xml version="1.0" encoding="iso-8859-1"?>
<!-- Generator: Adobe Illustrator 19.0.0, SVG Export Plug-In . SVG Version: 6.00 Build 0)  -->
<svg version="1.1" id="Layer_1" xmlns="http://www.w3.org/2000/svg" xmlns:xlink="http://www.w3.org/1999/xlink" x="0px" y="0px"
	 viewBox="0 0 512.018 512.018" style="enable-background:new 0 0 512.018 512.018;" xml:space="preserve">
<g>
	<path id="SVGCleanerId_0" style="fill:#AABDBF;" d="M324.044,474.038c-3.452,3.452-9.039,3.452-12.482,0
		c-3.452-3.452-3.452-9.039,0-12.482c3.443-3.452,9.031-3.452,12.482,0C327.495,464.998,327.495,470.586,324.044,474.038"/>
	<path id="SVGCleanerId_1" style="fill:#AABDBF;" d="M377.009,447.555c-3.452,3.452-9.039,3.452-12.482,0
		c-3.452-3.452-3.452-9.039,0-12.482c3.443-3.452,9.031-3.452,12.482,0C380.461,438.516,380.461,444.104,377.009,447.555"/>
	<path id="SVGCleanerId_2" style="fill:#AABDBF;" d="M412.32,412.245c-3.452,3.452-9.039,3.452-12.482,0
		c-3.452-3.452-3.452-9.039,0-12.482c3.443-3.452,9.031-3.452,12.482,0C415.771,403.205,415.771,408.793,412.32,412.245"/>
	<path style="fill:#E8EDEE;" d="M494.354,46.045L467.836,0l-97.068,56.55l12.306,31.656c13.665,28.46,31.832,122.147,31.832,167.724
		c0,114.317-60.804,185.353-158.685,185.459v-0.062c-0.071,0-0.141-0.009-0.212-0.009s-0.141,0.009-0.212,0.009v0.062
		c-97.88-0.106-158.685-71.141-158.685-185.459c0-45.577,18.167-139.264,31.832-167.724L141.25,56.55L44.182,0L17.664,46.045
		l42.275,24.523c-15.678,42.831-33.448,131.61-33.448,185.362c0,153.176,92.239,256.088,229.517,256.088
		s229.517-102.912,229.517-256.088c0-53.751-17.77-142.53-33.448-185.362L494.354,46.045z"/>
	<g>
		<path id="SVGCleanerId_0_1_" style="fill:#AABDBF;" d="M324.044,474.038c-3.452,3.452-9.039,3.452-12.482,0
			c-3.452-3.452-3.452-9.039,0-12.482c3.443-3.452,9.031-3.452,12.482,0C327.495,464.998,327.495,470.586,324.044,474.038"/>
	</g>
	<g>
		<path id="SVGCleanerId_1_1_" style="fill:#AABDBF;" d="M377.009,447.555c-3.452,3.452-9.039,3.452-12.482,0
			c-3.452-3.452-3.452-9.039,0-12.482c3.443-3.452,9.031-3.452,12.482,0C380.461,438.516,380.461,444.104,377.009,447.555"/>
	</g>
	<g>
		<path id="SVGCleanerId_2_1_" style="fill:#AABDBF;" d="M412.32,412.245c-3.452,3.452-9.039,3.452-12.482,0
			c-3.452-3.452-3.452-9.039,0-12.482c3.443-3.452,9.031-3.452,12.482,0C415.771,403.205,415.771,408.793,412.32,412.245"/>
	</g>
	<path id="SVGCleanerId_3" style="fill:#AABDBF;" d="M421.147,76.796c-3.452,3.452-9.039,3.452-12.482,0
		c-3.452-3.452-3.452-9.039,0-12.482c3.443-3.452,9.031-3.452,12.482,0C424.599,67.757,424.599,73.345,421.147,76.796"/>
	<g>
		<path id="SVGCleanerId_3_1_" style="fill:#AABDBF;" d="M421.147,76.796c-3.452,3.452-9.039,3.452-12.482,0
			c-3.452-3.452-3.452-9.039,0-12.482c3.443-3.452,9.031-3.452,12.482,0C424.599,67.757,424.599,73.345,421.147,76.796"/>
	</g>
	<path id="SVGCleanerId_4" style="fill:#AABDBF;" d="M103.354,76.796c-3.452,3.452-9.039,3.452-12.482,0
		c-3.452-3.452-3.452-9.039,0-12.482c3.443-3.452,9.031-3.452,12.482,0C106.806,67.757,106.806,73.345,103.354,76.796"/>
	<g>
		<path id="SVGCleanerId_4_1_" style="fill:#AABDBF;" d="M103.354,76.796c-3.452,3.452-9.039,3.452-12.482,0
			c-3.452-3.452-3.452-9.039,0-12.482c3.443-3.452,9.031-3.452,12.482,0C106.806,67.757,106.806,73.345,103.354,76.796"/>
	</g>
	<g>
		<path style="fill:#AABDBF;" d="M187.974,474.038c3.452,3.452,9.039,3.452,12.482,0c3.452-3.452,3.452-9.039,0-12.482
			c-3.443-3.452-9.031-3.452-12.482,0C184.522,464.998,184.522,470.586,187.974,474.038"/>
		<path style="fill:#AABDBF;" d="M135.008,447.555c3.452,3.452,9.039,3.452,12.482,0c3.452-3.452,3.452-9.039,0-12.482
			c-3.443-3.452-9.031-3.452-12.482,0C131.557,438.516,131.557,444.104,135.008,447.555"/>
		<path style="fill:#AABDBF;" d="M99.698,412.245c3.452,3.452,9.039,3.452,12.482,0c3.452-3.452,3.452-9.039,0-12.482
			c-3.443-3.452-9.031-3.452-12.482,0C96.246,403.205,96.246,408.793,99.698,412.245"/>
		<path style="fill:#AABDBF;" d="M262.251,482.933c-3.452,3.452-9.039,3.452-12.482,0c-3.452-3.452-3.452-9.039,0-12.482
			c3.443-3.452,9.031-3.452,12.482,0C265.702,473.893,265.702,479.481,262.251,482.933"/>
	</g>
</g>
<g>
</g>
<g>
</g>
<g>
</g>
<g>
</g>
<g>
</g>
<g>
</g>
<g>
</g>
<g>
</g>
<g>
</g>
<g>
</g>
<g>
</g>
<g>
</g>
<g>
</g>
<g>
</g>
<g>
</g>
</svg>
